<svg role="img" aria-label="imdb" class="imdb__svg " id="Layer_1" x="0" y="0" viewBox="0 0 65.4 32"><g><path fill="#E6B91E" d="M61.7,0H3.7C1.7,0,0,1.7,0,3.7v24.5C0,30.3,1.7,32,3.7,32h57.9c2.1,0,3.7-1.7,3.7-3.7V3.7C65.4,1.7,63.7,0,61.7,0L61.7,0z"></path><rect x="9.4" y="6.8" fill-rule="evenodd" fill="#010101" width="4.8" height="18.7"></rect><path fill-rule="evenodd" fill="#010101" d="M24.6,6.8l-1.1,8.7l-0.7-4.7c-0.2-1.5-0.4-2.8-0.6-4h-6.3v18.7h4.2l0-12.3L22,25.4h3l1.7-12.6l0,12.6h4.2V6.8H24.6z"></path><path fill-rule="evenodd" fill="#010101" d="M38.4,25.4c1.2,0,2-0.1,2.6-0.2c0.6-0.1,1.1-0.3,1.4-0.7c0.4-0.3,0.7-0.8,0.8-1.3c0.2-0.6,0.3-1.7,0.3-3.4v-6.5c0-1.8-0.1-2.9-0.2-3.6c-0.1-0.6-0.4-1.1-0.8-1.6c-0.4-0.5-1.1-0.8-1.9-1.1c-0.8-0.2-2.2-0.3-4.5-0.3h-3.6v18.7H38.4z M38.5,10.1c0.2,0.1,0.3,0.3,0.4,0.5c0.1,0.2,0.1,0.8,0.1,1.6v7.2c0,1.2-0.1,2-0.2,2.3c-0.2,0.3-0.6,0.4-1.3,0.4V10C37.9,10,38.3,10,38.5,10.1z"></path><path fill-rule="evenodd" fill="#010101" d="M45.2,6.8v18.7h4.4l0.3-1.2c0.4,0.5,0.8,0.8,1.3,1.1c0.5,0.2,1.2,0.4,1.7,0.4c0.8,0,1.4-0.2,2-0.6c0.6-0.4,0.9-0.9,1.1-1.4c0.2-0.6,0.2-1.4,0.2-2.5v-5.2c0-1.1,0-1.9-0.1-2.2c0-0.3-0.2-0.7-0.4-1.1c-0.3-0.4-0.6-0.6-1.1-0.8c-0.5-0.2-1-0.3-1.7-0.3c-0.6,0-1.3,0.1-1.7,0.3c-0.5,0.2-0.9,0.6-1.3,1V6.8H45.2z M51.5,20.9c0,0.9,0,1.5-0.1,1.7c-0.1,0.2-0.5,0.4-0.8,0.4c-0.3,0-0.5-0.1-0.6-0.3c-0.1-0.2-0.1-0.8-0.1-1.6v-4.9c0-0.9,0-1.4,0.1-1.6c0.1-0.2,0.3-0.3,0.6-0.3c0.3,0,0.7,0.1,0.8,0.4c0.1,0.2,0.2,0.8,0.2,1.5V20.9z"></path></g></svg>