<svg class="sc-hIVACf bFFHLS" width="128px" height="32px" viewBox="0 0 78 17"><path fill="#FF3334" fill-rule="evenodd" d="M5.238 8.5c0 1.8 1.48 3.319 3.356 3.319.881 0 1.519-.338 2.269-.881.393-.282.768-.6 1.443-.6.563 0 1.013.206 1.332.45.487.375.75.9.75 1.556 0 .693-.3 1.162-.62 1.518C12.776 14.987 10.732 16 8.445 16 4.225 16 1 12.512 1 8.5 1 4.488 4.244 1 8.444 1c2.269 0 4.256 1.013 5.25 2.137.319.357.619.826.619 1.52 0 .637-.263 1.18-.75 1.556-.394.3-.844.45-1.332.45-.675 0-1.05-.32-1.443-.6-.675-.488-1.294-.882-2.232-.882C6.72 5.181 5.238 6.7 5.238 8.5zM58 4.319v3.468h2.588c.956 0 1.687-.75 1.687-1.725 0-.956-.75-1.743-1.687-1.743H58zM40.994 8.5c0 2.381 1.875 4.312 4.2 4.312 2.306 0 4.2-1.93 4.2-4.312 0-2.363-1.894-4.313-4.2-4.313-2.325 0-4.2 1.95-4.2 4.313zm28.838 6.638c-.732 0-1.125-.413-1.125-1.088V2.931c0-.731.43-1.087 1.125-1.087h6.15c.694 0 1.125.356 1.125 1.087v.3c0 .732-.431 1.088-1.125 1.088h-4.65V7.28h3.862c.694 0 1.125.356 1.125 1.088v.319c0 .712-.431 1.068-1.125 1.068h-3.862v2.907h4.725c.712 0 1.125.374 1.125 1.087v.319c0 .712-.413 1.069-1.125 1.069h-6.225zM58 14.05c0 .675-.375 1.088-1.106 1.088H56.5c-.731 0-1.125-.413-1.125-1.088V2.931c0-.694.394-1.087 1.125-1.087h4.22c2.343 0 4.236 1.931 4.236 4.218 0 1.37-.806 2.607-1.95 3.338.657.562 1.07 1.238 1.332 2.1l.618 2.137c.094.3.132.525.132.657 0 .487-.45.844-1.032.844h-.562c-.581 0-.919-.282-1.069-.807l-.618-2.193c-.263-.92-1.07-1.876-2.4-1.876H58v3.788zM30.12 10.019c-.338.487-.581.862-1.275.862h-.356c-.694 0-.938-.375-1.275-.862l-2.27-3.357v7.388c0 .675-.393 1.088-1.124 1.088h-.375c-.75 0-1.125-.413-1.125-1.088V2.931c0-.694.375-1.087 1.125-1.087h.469c.637 0 .918.187 1.256.675l3.487 5.118 3.507-5.118c.318-.488.6-.675 1.256-.675h.469c.75 0 1.125.393 1.125 1.087V14.05c0 .675-.375 1.088-1.125 1.088h-.375c-.75 0-1.125-.413-1.125-1.088V6.662l-2.269 3.357zM38.313 8.5c0-3.769 3.093-6.844 6.88-6.844 3.789 0 6.882 3.075 6.882 6.844s-3.093 6.825-6.881 6.825c-3.788 0-6.881-3.056-6.881-6.825z"></path></svg>